<mxfile host="app.diagrams.net" agent="Mozilla/5.0 (Macintosh; Intel Mac OS X 10_15_7) AppleWebKit/537.36 (KHTML, like Gecko) Chrome/131.0.0.0 Safari/537.36" version="24.9.0" pages="2">
  <diagram name="logical-model" id="DHBpC3l7fBPcuPoM1qfk">
    <mxGraphModel dx="724" dy="587" grid="1" gridSize="10" guides="1" tooltips="1" connect="1" arrows="1" fold="1" page="1" pageScale="1" pageWidth="850" pageHeight="1100" math="0" shadow="0">
      <root>
        <mxCell id="0" />
        <mxCell id="1" parent="0" />
        <mxCell id="646gZCzMXCmpMYS0U0V--1" value="User" style="rounded=0;whiteSpace=wrap;html=1;align=center;" parent="1" vertex="1">
          <mxGeometry x="80" y="80" width="120" height="40" as="geometry" />
        </mxCell>
        <mxCell id="646gZCzMXCmpMYS0U0V--2" value="&lt;div style=&quot;text-align: justify;&quot;&gt;&lt;span style=&quot;background-color: initial;&quot;&gt;User ID (PK)&lt;/span&gt;&lt;/div&gt;&lt;div style=&quot;text-align: justify;&quot;&gt;Name&lt;/div&gt;&lt;div style=&quot;text-align: justify;&quot;&gt;Gender&lt;/div&gt;&lt;div style=&quot;text-align: justify;&quot;&gt;Age&lt;/div&gt;" style="whiteSpace=wrap;html=1;aspect=fixed;" parent="1" vertex="1">
          <mxGeometry x="80" y="120" width="120" height="120" as="geometry" />
        </mxCell>
        <mxCell id="646gZCzMXCmpMYS0U0V--3" value="&lt;div style=&quot;text-align: justify;&quot;&gt;&lt;span style=&quot;background-color: initial;&quot;&gt;Post&lt;/span&gt;&lt;/div&gt;" style="rounded=0;whiteSpace=wrap;html=1;align=center;" parent="1" vertex="1">
          <mxGeometry x="160" y="320" width="120" height="40" as="geometry" />
        </mxCell>
        <mxCell id="646gZCzMXCmpMYS0U0V--4" value="&lt;div style=&quot;text-align: justify;&quot;&gt;&lt;span style=&quot;background-color: initial;&quot;&gt;Post ID (PK)&lt;/span&gt;&lt;/div&gt;&lt;div style=&quot;text-align: justify;&quot;&gt;&lt;span style=&quot;background-color: initial;&quot;&gt;User ID (FK)&lt;/span&gt;&lt;/div&gt;&lt;div style=&quot;text-align: justify;&quot;&gt;&lt;span style=&quot;background-color: initial;&quot;&gt;Title&lt;/span&gt;&lt;/div&gt;&lt;div style=&quot;text-align: justify;&quot;&gt;Desciption&lt;/div&gt;&lt;div style=&quot;text-align: justify;&quot;&gt;Image&lt;/div&gt;" style="whiteSpace=wrap;html=1;aspect=fixed;align=center;" parent="1" vertex="1">
          <mxGeometry x="160" y="360" width="120" height="120" as="geometry" />
        </mxCell>
        <mxCell id="646gZCzMXCmpMYS0U0V--6" value="" style="endArrow=none;html=1;rounded=0;exitX=0.092;exitY=0;exitDx=0;exitDy=0;exitPerimeter=0;" parent="1" source="646gZCzMXCmpMYS0U0V--3" edge="1">
          <mxGeometry width="50" height="50" relative="1" as="geometry">
            <mxPoint x="170" y="310" as="sourcePoint" />
            <mxPoint x="170" y="240" as="targetPoint" />
            <Array as="points" />
          </mxGeometry>
        </mxCell>
        <mxCell id="646gZCzMXCmpMYS0U0V--7" value="Comment" style="rounded=0;whiteSpace=wrap;html=1;" parent="1" vertex="1">
          <mxGeometry x="320" y="120" width="120" height="40" as="geometry" />
        </mxCell>
        <mxCell id="646gZCzMXCmpMYS0U0V--11" value="" style="edgeStyle=orthogonalEdgeStyle;rounded=0;orthogonalLoop=1;jettySize=auto;html=1;" parent="1" source="646gZCzMXCmpMYS0U0V--8" target="646gZCzMXCmpMYS0U0V--10" edge="1">
          <mxGeometry relative="1" as="geometry" />
        </mxCell>
        <mxCell id="646gZCzMXCmpMYS0U0V--8" value="Like" style="rounded=0;whiteSpace=wrap;html=1;" parent="1" vertex="1">
          <mxGeometry x="480" y="280" width="120" height="40" as="geometry" />
        </mxCell>
        <mxCell id="646gZCzMXCmpMYS0U0V--9" value="Comment ID (PK)&lt;div&gt;&lt;span style=&quot;background-color: initial;&quot;&gt;Post ID (FK)&lt;/span&gt;&lt;div&gt;User ID (FK)&lt;/div&gt;&lt;div&gt;Description&lt;/div&gt;&lt;div&gt;Time&lt;/div&gt;&lt;/div&gt;" style="whiteSpace=wrap;html=1;aspect=fixed;" parent="1" vertex="1">
          <mxGeometry x="320" y="160" width="120" height="120" as="geometry" />
        </mxCell>
        <mxCell id="646gZCzMXCmpMYS0U0V--10" value="&lt;div&gt;&lt;span style=&quot;background-color: initial;&quot;&gt;Post ID (FK)&lt;/span&gt;&lt;/div&gt;User ID (FK)" style="whiteSpace=wrap;html=1;aspect=fixed;" parent="1" vertex="1">
          <mxGeometry x="480" y="320" width="120" height="120" as="geometry" />
        </mxCell>
        <mxCell id="646gZCzMXCmpMYS0U0V--12" value="" style="endArrow=none;html=1;rounded=0;entryX=0.25;entryY=1;entryDx=0;entryDy=0;" parent="1" target="646gZCzMXCmpMYS0U0V--9" edge="1">
          <mxGeometry width="50" height="50" relative="1" as="geometry">
            <mxPoint x="350" y="360" as="sourcePoint" />
            <mxPoint x="330" y="290" as="targetPoint" />
          </mxGeometry>
        </mxCell>
        <mxCell id="646gZCzMXCmpMYS0U0V--13" value="" style="endArrow=none;html=1;rounded=0;exitX=1;exitY=0;exitDx=0;exitDy=0;" parent="1" source="646gZCzMXCmpMYS0U0V--4" edge="1">
          <mxGeometry width="50" height="50" relative="1" as="geometry">
            <mxPoint x="350" y="330" as="sourcePoint" />
            <mxPoint x="350" y="360" as="targetPoint" />
          </mxGeometry>
        </mxCell>
        <mxCell id="646gZCzMXCmpMYS0U0V--14" value="" style="endArrow=none;html=1;rounded=0;exitX=0.992;exitY=0.333;exitDx=0;exitDy=0;exitPerimeter=0;" parent="1" source="646gZCzMXCmpMYS0U0V--4" edge="1">
          <mxGeometry width="50" height="50" relative="1" as="geometry">
            <mxPoint x="350" y="330" as="sourcePoint" />
            <mxPoint x="480" y="400" as="targetPoint" />
          </mxGeometry>
        </mxCell>
      </root>
    </mxGraphModel>
  </diagram>
  <diagram id="xBFMWlfyUhkbRVVS03In" name="physical-model">
    <mxGraphModel dx="724" dy="587" grid="1" gridSize="10" guides="1" tooltips="1" connect="1" arrows="1" fold="1" page="1" pageScale="1" pageWidth="850" pageHeight="1100" math="0" shadow="0">
      <root>
        <mxCell id="0" />
        <mxCell id="1" parent="0" />
        <mxCell id="_Jv-5GFueexwmUAOOqde-1" value="User: INTEGER" style="rounded=0;whiteSpace=wrap;html=1;align=center;" vertex="1" parent="1">
          <mxGeometry x="80" y="80" width="120" height="40" as="geometry" />
        </mxCell>
        <mxCell id="_Jv-5GFueexwmUAOOqde-2" value="&lt;div style=&quot;text-align: justify;&quot;&gt;&lt;span style=&quot;background-color: initial;&quot;&gt;User ID: INTEGER&lt;/span&gt;&lt;/div&gt;&lt;div style=&quot;text-align: justify;&quot;&gt;Name: VARCHAR&lt;/div&gt;&lt;div style=&quot;text-align: justify;&quot;&gt;Gender: CHAR(1)&lt;/div&gt;&lt;div style=&quot;text-align: justify;&quot;&gt;Age: INTEGER&lt;/div&gt;" style="whiteSpace=wrap;html=1;aspect=fixed;" vertex="1" parent="1">
          <mxGeometry x="80" y="120" width="120" height="120" as="geometry" />
        </mxCell>
        <mxCell id="_Jv-5GFueexwmUAOOqde-3" value="&lt;div style=&quot;text-align: justify;&quot;&gt;&lt;span style=&quot;background-color: initial;&quot;&gt;Post: INTEGER&lt;/span&gt;&lt;/div&gt;" style="rounded=0;whiteSpace=wrap;html=1;align=center;" vertex="1" parent="1">
          <mxGeometry x="160" y="320" width="120" height="40" as="geometry" />
        </mxCell>
        <mxCell id="_Jv-5GFueexwmUAOOqde-4" value="&lt;div style=&quot;text-align: justify;&quot;&gt;&lt;span style=&quot;background-color: initial;&quot;&gt;Post ID: INTEGER&lt;/span&gt;&lt;/div&gt;&lt;div style=&quot;text-align: justify;&quot;&gt;&lt;span style=&quot;background-color: initial;&quot;&gt;User ID: VARCHAR&lt;/span&gt;&lt;/div&gt;&lt;div style=&quot;text-align: justify;&quot;&gt;&lt;span style=&quot;background-color: initial;&quot;&gt;Title: VARCHAR&lt;/span&gt;&lt;/div&gt;&lt;div style=&quot;text-align: justify;&quot;&gt;Desciption: VARCHAR&lt;/div&gt;&lt;div style=&quot;text-align: justify;&quot;&gt;Image: URL&lt;/div&gt;" style="whiteSpace=wrap;html=1;aspect=fixed;align=center;" vertex="1" parent="1">
          <mxGeometry x="160" y="360" width="120" height="120" as="geometry" />
        </mxCell>
        <mxCell id="_Jv-5GFueexwmUAOOqde-5" value="" style="endArrow=none;html=1;rounded=0;exitX=0.092;exitY=0;exitDx=0;exitDy=0;exitPerimeter=0;" edge="1" parent="1" source="_Jv-5GFueexwmUAOOqde-3">
          <mxGeometry width="50" height="50" relative="1" as="geometry">
            <mxPoint x="170" y="310" as="sourcePoint" />
            <mxPoint x="170" y="240" as="targetPoint" />
            <Array as="points" />
          </mxGeometry>
        </mxCell>
        <mxCell id="_Jv-5GFueexwmUAOOqde-6" value="Comment: INTEGER" style="rounded=0;whiteSpace=wrap;html=1;" vertex="1" parent="1">
          <mxGeometry x="320" y="120" width="120" height="40" as="geometry" />
        </mxCell>
        <mxCell id="_Jv-5GFueexwmUAOOqde-7" value="" style="edgeStyle=orthogonalEdgeStyle;rounded=0;orthogonalLoop=1;jettySize=auto;html=1;" edge="1" parent="1" source="_Jv-5GFueexwmUAOOqde-8" target="_Jv-5GFueexwmUAOOqde-10">
          <mxGeometry relative="1" as="geometry" />
        </mxCell>
        <mxCell id="_Jv-5GFueexwmUAOOqde-8" value="Like: INTEGER" style="rounded=0;whiteSpace=wrap;html=1;" vertex="1" parent="1">
          <mxGeometry x="480" y="280" width="120" height="40" as="geometry" />
        </mxCell>
        <mxCell id="_Jv-5GFueexwmUAOOqde-9" value="Comment ID: INTEGER&lt;div&gt;&lt;span style=&quot;background-color: initial;&quot;&gt;Post ID: INTEGER&lt;/span&gt;&lt;div&gt;User ID: INTEGER&lt;/div&gt;&lt;div&gt;Description: TEXT&lt;/div&gt;&lt;div&gt;&lt;span style=&quot;background-color: initial;&quot;&gt;Time: DATETIME&lt;/span&gt;&lt;/div&gt;&lt;/div&gt;" style="whiteSpace=wrap;html=1;aspect=fixed;" vertex="1" parent="1">
          <mxGeometry x="320" y="160" width="120" height="120" as="geometry" />
        </mxCell>
        <mxCell id="_Jv-5GFueexwmUAOOqde-10" value="&lt;div&gt;&lt;span style=&quot;background-color: initial;&quot;&gt;Post ID: INTEGER&lt;/span&gt;&lt;/div&gt;User ID: INTEGER" style="whiteSpace=wrap;html=1;aspect=fixed;" vertex="1" parent="1">
          <mxGeometry x="480" y="320" width="120" height="120" as="geometry" />
        </mxCell>
        <mxCell id="_Jv-5GFueexwmUAOOqde-11" value="" style="endArrow=none;html=1;rounded=0;entryX=0.25;entryY=1;entryDx=0;entryDy=0;" edge="1" parent="1" target="_Jv-5GFueexwmUAOOqde-9">
          <mxGeometry width="50" height="50" relative="1" as="geometry">
            <mxPoint x="350" y="360" as="sourcePoint" />
            <mxPoint x="330" y="290" as="targetPoint" />
          </mxGeometry>
        </mxCell>
        <mxCell id="_Jv-5GFueexwmUAOOqde-12" value="" style="endArrow=none;html=1;rounded=0;exitX=1;exitY=0;exitDx=0;exitDy=0;" edge="1" parent="1" source="_Jv-5GFueexwmUAOOqde-4">
          <mxGeometry width="50" height="50" relative="1" as="geometry">
            <mxPoint x="350" y="330" as="sourcePoint" />
            <mxPoint x="350" y="360" as="targetPoint" />
          </mxGeometry>
        </mxCell>
        <mxCell id="_Jv-5GFueexwmUAOOqde-13" value="" style="endArrow=none;html=1;rounded=0;exitX=0.992;exitY=0.333;exitDx=0;exitDy=0;exitPerimeter=0;" edge="1" parent="1" source="_Jv-5GFueexwmUAOOqde-4">
          <mxGeometry width="50" height="50" relative="1" as="geometry">
            <mxPoint x="350" y="330" as="sourcePoint" />
            <mxPoint x="480" y="400" as="targetPoint" />
          </mxGeometry>
        </mxCell>
      </root>
    </mxGraphModel>
  </diagram>
</mxfile>
